<?xml version="1.0" standalone="no"?><!DOCTYPE svg PUBLIC "-//W3C//DTD SVG 1.1//EN" "http://www.w3.org/Graphics/SVG/1.1/DTD/svg11.dtd"><svg t="1586416272764" class="icon" viewBox="0 0 1024 1024" version="1.1" xmlns="http://www.w3.org/2000/svg" p-id="8370" xmlns:xlink="http://www.w3.org/1999/xlink" width="200" height="200"><defs><style type="text/css"></style></defs><path d="M854.601143 0H170.496C76.288 0 0 69.266286 0 155.062857v713.874286C0 954.806857 76.288 1024 170.422857 1024h683.154286c94.134857 0 170.422857-69.266286 170.422857-155.062857V155.062857C1025.097143 69.193143 948.809143 0 854.601143 0z m92.013714 867.986286c0 45.421714-41.545143 83.675429-92.013714 83.675428H171.593143c-50.468571 0-91.940571-37.156571-91.940572-83.675428V153.965714c0-45.494857 41.472-83.675429 91.940572-83.675428h683.008c50.468571 0 92.013714 37.156571 92.013714 83.675428v714.020572z" fill="#D3B782" p-id="8371"></path><path d="M255.561143 287.597714h271.36c19.675429 0 36.205714-14.628571 36.205714-34.084571 0-18.505143-16.530286-34.084571-36.132571-34.084572h-271.36C235.885714 219.428571 219.428571 234.057143 219.428571 253.513143c-1.024 19.456 15.433143 34.084571 36.059429 34.084571z m511.853714 153.746286H255.561143c-19.602286 0-36.059429 14.628571-36.059429 34.084571 0 18.505143 16.457143 34.084571 36.059429 34.084572h512.877714c19.602286 0 36.132571-14.628571 36.132572-34.084572s-16.530286-34.084571-37.156572-34.084571z m0 221.915429H255.561143c-19.602286 0-36.059429 14.628571-36.059429 34.084571 0 18.505143 16.457143 34.084571 36.059429 34.084571h512.877714c19.602286 0 36.132571-14.628571 36.132572-34.084571s-16.530286-34.084571-37.156572-34.084571z" fill="#D3B782" p-id="8372"></path></svg>