<?xml version="1.0" standalone="no"?><!DOCTYPE svg PUBLIC "-//W3C//DTD SVG 1.1//EN" "http://www.w3.org/Graphics/SVG/1.1/DTD/svg11.dtd"><svg t="1586417070457" class="icon" viewBox="0 0 1024 1024" version="1.1" xmlns="http://www.w3.org/2000/svg" p-id="2485" xmlns:xlink="http://www.w3.org/1999/xlink" width="200" height="200"><defs><style type="text/css"></style></defs><path d="M602.6 83.2c-14.8-13.7-34.2-21.3-54.3-21.3H177c-44.2 0-80 35.8-80 80v735.7c0 44.2 35.8 80 80 80h670c44.2 0 80-35.8 80-80V418.5c0-22.3-9.3-43.6-25.7-58.7L602.6 83.2zM823 893.6H201c-22.1 0-40-17.9-40-40V165.9c0-22.1 17.9-40 40-40h335.6v210.9c0 44.2 35.8 80 80 80H863v436.7c0 22.1-17.9 40.1-40 40.1z" fill="#52CCCC" p-id="2486"></path></svg>