<?xml version="1.0" standalone="no"?><!DOCTYPE svg PUBLIC "-//W3C//DTD SVG 1.1//EN" "http://www.w3.org/Graphics/SVG/1.1/DTD/svg11.dtd"><svg t="1586416335633" class="icon" viewBox="0 0 1329 1024" version="1.1" xmlns="http://www.w3.org/2000/svg" p-id="11122" xmlns:xlink="http://www.w3.org/1999/xlink" width="259.5703125" height="200"><defs><style type="text/css"></style></defs><path d="M664.936274 0A664.935065 664.935065 0 0 0 0.001209 664.935065a657.681228 657.681228 0 0 0 96.717828 344.557261 29.619835 29.619835 0 0 0 25.388429 14.507674H1208.974054a29.619835 29.619835 0 0 0 25.38843-14.507674A657.681228 657.681228 0 0 0 1329.871339 664.935065 664.935065 664.935065 0 0 0 664.936274 0z m525.298701 963.551358H139.637573A604.486423 604.486423 0 1 1 1269.422697 664.935065a599.650531 599.650531 0 0 1-79.187722 298.616293z" p-id="11123"></path><path d="M664.936274 181.345927a483.589138 483.589138 0 0 0-483.589138 483.589138 30.224321 30.224321 0 0 0 60.448642 0 423.140496 423.140496 0 0 1 846.280992 0 30.224321 30.224321 0 0 0 60.448642 0 483.589138 483.589138 0 0 0-483.589138-483.589138z" p-id="11124"></path><path d="M664.936274 634.106257a120.897285 120.897285 0 0 0-48.358914 10.880756L488.426238 492.656434a30.224321 30.224321 0 0 0-46.545454 38.687132l128.755608 152.330578a116.061393 116.061393 0 0 0-20.552538 65.284534 114.85242 114.85242 0 1 0 114.85242-114.852421z" p-id="11125"></path></svg>