<?xml version="1.0" standalone="no"?><!DOCTYPE svg PUBLIC "-//W3C//DTD SVG 1.1//EN" "http://www.w3.org/Graphics/SVG/1.1/DTD/svg11.dtd"><svg t="1587030573445" class="icon" viewBox="0 0 1024 1024" version="1.1" xmlns="http://www.w3.org/2000/svg" p-id="5160" xmlns:xlink="http://www.w3.org/1999/xlink" width="200" height="200"><defs><style type="text/css"></style></defs><path d="M971.115534 0.00021H52.882466A52.735946 52.735946 0 0 0 0.00052 52.226157v707.581281c0 28.671971 23.844976 52.223947 52.881946 52.223947h354.96164v153.599844h-98.011901a29.32997 29.32997 0 0 0-29.47597 29.183971c0 16.090984 13.165987 29.18397 29.54997 29.18397h404.697589a29.32997 29.32997 0 0 0 29.54997-29.18397c0-16.091984-13.165987-29.18397-29.54997-29.183971h-98.4499v-153.599844h354.96164a52.735946 52.735946 0 0 0 52.881946-52.223947V52.225157A52.735946 52.735946 0 0 0 971.115534 0.00021zM556.029955 959.706235h-88.06391V807.934389h88.06391v151.770846z m402.284592-215.039781H65.682453V59.54015h892.779094v685.127304z" p-id="5161"></path><path d="M277.065239 399.139805l64.729934-64.510935a23.844976 23.844976 0 0 0 0-33.938965 23.989976 23.989976 0 0 0-34.009966 0l-81.188917 81.041917a24.868975 24.868975 0 0 0 0 34.815965l81.626917 81.042918a23.989976 23.989976 0 1 0 34.011965-33.938966l-65.169933-64.511934z m177.589819 109.713888l-6.143994-3.289996a23.770976 23.770976 0 0 1-8.99699-32.036968l96.329902-169.105828a23.917976 23.917976 0 0 1 32.181967-8.923991l6.070994 3.291997a23.770976 23.770976 0 0 1 8.996991 32.035967l-96.329902 169.105828a23.332976 23.332976 0 0 1-32.181968 8.922991z m342.819652-127.121871l-81.699917-81.553917a23.989976 23.989976 0 1 0-34.011965 33.938966l64.730934 64.510934-64.729934 64.584935a23.844976 23.844976 0 0 0 0 33.865965c9.50799 9.50799 24.574975 9.50799 34.009965 0l81.699917-80.969918a24.136975 24.136975 0 0 0 7.095993-17.479982 22.015978 22.015978 0 0 0-7.094993-16.896983z" p-id="5162"></path></svg>