<?xml version="1.0" standalone="no"?><!DOCTYPE svg PUBLIC "-//W3C//DTD SVG 1.1//EN" "http://www.w3.org/Graphics/SVG/1.1/DTD/svg11.dtd"><svg t="1586417327382" class="icon" viewBox="0 0 1024 1024" version="1.1" xmlns="http://www.w3.org/2000/svg" p-id="5652" xmlns:xlink="http://www.w3.org/1999/xlink" width="200" height="200"><defs><style type="text/css"></style></defs><path d="M489.728 865.664c-1.408 0-2.688-0.128-3.968-0.384h-2.176l-4.224-2.304c-113.664-60.928-250.88-75.392-396.16-90.624h-0.128l-13.312-1.536c-17.152-1.536-30.464-16-30.464-33.28V183.936c0-18.944 15.488-34.432 34.432-34.432h19.968c153.984 0 288.384 28.928 399.36 86.016 10.624 5.376 17.792 17.28 17.792 29.696v579.328c0 5.632-2.304 10.752-6.656 15.104-3.968 3.84-9.088 6.016-14.464 6.016zM87.296 734.208C226.176 748.8 357.76 762.624 472.32 816.512V268.16c-104.832-53.248-232.32-80.128-378.752-80.128H77.696v545.152l9.6 1.024zM547.84 864.896c-4.224 0-8.576-1.28-12.416-3.84-6.912-4.608-10.624-11.52-10.624-19.584V265.216c0-12.544 6.656-23.68 17.792-29.952l0.64-0.256c111.488-57.088 245.376-86.016 398.336-86.016h20.48c18.944 0 34.432 15.488 34.432 34.432v554.112c0 17.28-13.568 31.744-30.976 33.28l-23.936 2.944c-147.2 16.384-274.304 30.592-382.592 88.32l-4.224 2.304h-1.664c-1.92 0.256-3.584 0.512-5.248 0.512z m15.36-596.992v548.992c109.312-51.712 232.576-65.536 373.888-81.28l2.56-0.256 18.176-2.176V187.392h-16.512c-145.536 0-272.768 27.008-378.112 80.512z" fill="#999999" p-id="5653"></path><path d="M381.568 433.92c-1.024 0-2.176-0.128-3.328-0.256-3.584-0.64-6.912-1.664-9.856-3.072-65.792-26.368-132.608-39.936-198.528-40.32-10.624 0-19.2-8.704-19.072-19.328 0-10.624 8.704-19.072 19.2-19.072h0.128c70.912 0.384 142.72 14.976 213.248 43.264l1.28 0.512h0.256c10.496 1.792 17.408 11.776 15.616 22.144-1.536 9.6-9.728 16.128-18.944 16.128z m2.944-38.144zM359.296 583.552c-1.024 0-2.176-0.128-3.328-0.256-3.584-0.64-6.912-1.664-9.856-3.072-65.792-26.368-132.608-39.936-198.528-40.32-10.624 0-19.2-8.704-19.072-19.328 0-10.624 8.704-19.2 19.328-19.072 70.912 0.384 142.72 14.976 213.248 43.264l1.28 0.512h0.256c10.496 1.792 17.408 11.776 15.616 22.144-1.664 9.6-9.728 16.128-18.944 16.128z m2.816-38.144zM850.432 457.984h-57.088c-28.672 0-51.968-23.296-51.968-51.968v-84.224c0-28.672 23.296-51.968 51.968-51.968h57.088c28.672 0 51.968 23.296 51.968 51.968v84.224c-0.128 28.672-23.424 51.968-51.968 51.968z m-57.216-149.76c-7.424 0-13.568 6.144-13.568 13.568v84.224c0 7.424 6.144 13.568 13.568 13.568h57.088c7.424 0 13.568-6.144 13.568-13.568v-84.224c0-7.424-6.144-13.568-13.568-13.568h-57.088z" fill="#999999" p-id="5654"></path></svg>