<?xml version="1.0" standalone="no"?><!DOCTYPE svg PUBLIC "-//W3C//DTD SVG 1.1//EN" "http://www.w3.org/Graphics/SVG/1.1/DTD/svg11.dtd"><svg t="1586417006738" class="icon" viewBox="0 0 1127 1024" version="1.1" xmlns="http://www.w3.org/2000/svg" p-id="2350" xmlns:xlink="http://www.w3.org/1999/xlink" width="220.1171875" height="200"><defs><style type="text/css"></style></defs><path d="M1054.699958 330.059939h-13.152293V215.447095a74.529664 74.529664 0 0 0-72.650765-75.782263h-438.409786v-62.62997A74.529664 74.529664 0 0 0 459.088949 0H72.662038A74.529664 74.529664 0 0 0 0.011273 75.782263v872.435474a74.529664 74.529664 0 0 0 72.650765 75.782263h896.234862a74.529664 74.529664 0 0 0 72.650765-75.782263L1127.350723 405.842202a74.529664 74.529664 0 0 0-72.650765-75.782263z m-70.145565 581.832416c0 39.456881-12.525994 52.609174-50.103976 52.609174H107.734821c-37.577982 0-50.103976-13.152294-50.103976-51.982875l85.803058-469.72477c0-39.456881 12.525994-52.609174 50.103976-52.609175h825.462997c37.577982 0 50.103976 13.152294 50.103975 51.982875l-85.803058 469.724771z m-50.103976-712.102753c37.577982 0 50.103976 13.152294 50.103976 52.609175v77.661162H158.465096a74.529664 74.529664 0 0 0-72.650765 75.155963l-28.183486 187.889908V112.107645c0-39.456881 12.525994-52.609174 50.103976-52.609174h313.149847c37.577982 0 50.103976 13.152294 50.103975 52.609174v87.681957z" fill="#CACACA" p-id="2351"></path></svg>