<?xml version="1.0" standalone="no"?><!DOCTYPE svg PUBLIC "-//W3C//DTD SVG 1.1//EN" "http://www.w3.org/Graphics/SVG/1.1/DTD/svg11.dtd"><svg t="1586416380261" class="icon" viewBox="0 0 1024 1024" version="1.1" xmlns="http://www.w3.org/2000/svg" p-id="12378" xmlns:xlink="http://www.w3.org/1999/xlink" width="200" height="200"><defs><style type="text/css"></style></defs><path d="M512 897C262.16 897 61.47 696.32 61.47 450.56S262.15 0 512 0s450.53 200.7 450.53 446.47S761.84 897 512 897z m0-577.54c-143.35 0-258 98.3-258 225.28 0 122.88 114.68 225.28 258 225.28s258-98.31 258-225.28c0-122.88-114.68-225.28-258-225.28zM512 639c-36.86 0-65.53-28.68-65.53-65.54s28.67-65.53 65.53-65.53 65.53 28.67 65.53 65.53S548.86 639 512 639zM262.15 897c73.73 41 159.75 65.56 249.85 65.56S688.12 938 761.84 897h73.73l65.52 127H122.9l65.54-127z m0 0" p-id="12379"></path></svg>