<?xml version="1.0" standalone="no"?><!DOCTYPE svg PUBLIC "-//W3C//DTD SVG 1.1//EN" "http://www.w3.org/Graphics/SVG/1.1/DTD/svg11.dtd"><svg t="1586416453936" class="icon" viewBox="0 0 1024 1024" version="1.1" xmlns="http://www.w3.org/2000/svg" p-id="14074" xmlns:xlink="http://www.w3.org/1999/xlink" width="200" height="200"><defs><style type="text/css"></style></defs><path d="M973.46 642.77a146.26 146.26 0 0 0-13.65-12.06 448.7 448.7 0 0 0 5.51-70.12 444.82 444.82 0 0 0-300.63-420.74 144.89 144.89 0 0 0-288.1 1.26 40 40 0 0 0-9.91 2.29A444.76 444.76 0 0 0 76.1 560.59a447.94 447.94 0 0 0 4 59.63A145.71 145.71 0 0 0 51 642.77a144.94 144.94 0 0 0 159 235.87 444.27 444.27 0 0 0 616.65 4.55 144.91 144.91 0 0 0 146.81-240.42zM474.84 110.11a64.87 64.87 0 1 1-19 45.87 64.45 64.45 0 0 1 19-45.87z m-367.28 681a64.87 64.87 0 1 1 45.87 19 64.45 64.45 0 0 1-45.87-19.03z m561.49 102.66a364.15 364.15 0 0 1-396.5-66.06 144.88 144.88 0 0 0-114.27-227.28 370.22 370.22 0 0 1-2.18-39.84 364.74 364.74 0 0 1 234.52-340.71 145 145 0 0 0 260.18 0 365.59 365.59 0 0 1 159.78 119.51c48.9 64 74.74 140.46 74.74 221.2a367.38 367.38 0 0 1-2.21 40.25q-6-0.5-12.09-0.5a144.89 144.89 0 0 0-112.27 236.45 362.55 362.55 0 0 1-89.7 56.98z m247.84-102.69a64.87 64.87 0 1 1 19-45.87 64.45 64.45 0 0 1-19 45.87z" p-id="14075"></path></svg>