<?xml version="1.0" standalone="no"?><!DOCTYPE svg PUBLIC "-//W3C//DTD SVG 1.1//EN" "http://www.w3.org/Graphics/SVG/1.1/DTD/svg11.dtd"><svg t="1586416235285" class="icon" viewBox="0 0 1024 1024" version="1.1" xmlns="http://www.w3.org/2000/svg" p-id="6988" xmlns:xlink="http://www.w3.org/1999/xlink" width="200" height="200"><defs><style type="text/css"></style></defs><path d="M512 512m-512 0a512 512 0 1 0 1024 0 512 512 0 1 0-1024 0Z" fill="#FF7E7F" p-id="6989"></path><path d="M730.2528 764.2368H285.568A42.3296 42.3296 0 0 1 243.2 721.8816V361.8816a42.3296 42.3296 0 0 1 42.3552-42.3552H730.24a42.3296 42.3296 0 0 1 42.368 42.368v359.9872a42.3296 42.3296 0 0 1-42.368 42.3552z" fill="#FFFFFF" p-id="6990"></path><path d="M412.608 392.6528a41.3824 41.3824 0 0 1-41.3568-41.3568v-63.5264a41.3824 41.3824 0 0 1 41.3568-41.3696 41.3824 41.3824 0 0 1 41.3696 41.3696v63.5264a41.3824 41.3824 0 0 1-41.3696 41.3568z m190.592 0a41.3824 41.3824 0 0 1-41.3696-41.3568v-63.5264a41.3824 41.3824 0 0 1 41.3696-41.3696 41.3824 41.3824 0 0 1 41.3696 41.3696v63.5264a41.3824 41.3824 0 0 1-41.3696 41.3568z" fill="#FFFFFF" p-id="6991"></path><path d="M496.6144 642.112l-0.4736 0.4736a21.2992 21.2992 0 0 1-30.0032 0l-77.4144-77.4144a21.2992 21.2992 0 0 1 0-29.9904l0.4736-0.4736a21.2992 21.2992 0 0 1 30.0032 0l77.4144 77.4144c8.2304 8.3456 8.2304 21.76 0 29.9904z" fill="#FF9091" p-id="6992"></path><path d="M472.96 642.5856l-0.4608-0.4736a21.2992 21.2992 0 0 1 0-29.9904l124.1088-124.1216a21.2992 21.2992 0 0 1 30.0032 0l0.4736 0.4736a21.2992 21.2992 0 0 1 0 30.0032l-124.2368 124.1088a21.1584 21.1584 0 0 1-29.888 0z" fill="#FF9091" p-id="6993"></path></svg>